<!--?xml version="1.0" standalone="no"?-->              <svg id="sw-js-blob-svg" viewBox="0 0 100 100" xmlns="http://www.w3.org/2000/svg" version="1.1">                    <defs>                         <linearGradient id="sw-gradient" x1="0" x2="1" y1="1" y2="0">                            <stop id="stop1" stop-color="rgba(26, 120, 155, 1)" offset="0%"></stop>                            <stop id="stop2" stop-color="rgba(21, 93, 119, 1)" offset="100%"></stop>                        </linearGradient>                    </defs>                <path fill="url(#sw-gradient)" d="M16.5,-18.3C20.6,-16.3,22.4,-10.3,25.3,-3.1C28.3,4.2,32.4,12.7,30.2,18.3C27.9,23.9,19.3,26.7,11.8,27C4.3,27.4,-2,25.3,-8.8,23.2C-15.5,21.2,-22.7,19.2,-28.2,14.1C-33.8,9,-37.7,0.8,-37.9,-8.1C-38,-17.1,-34.4,-26.9,-27.4,-28.3C-20.5,-29.8,-10.2,-22.9,-2,-20.5C6.3,-18.1,12.5,-20.3,16.5,-18.3Z" width="100%" height="100%" transform="translate(50 50)" stroke-width="0" style="transition: all 0.3s ease 0s;" stroke="url(#sw-gradient)"></path>              </svg>