<svg width="80" height="81" viewBox="0 0 80 81" fill="none" xmlns="http://www.w3.org/2000/svg">
<path d="M12 7.5V73.5C12 74.0304 12.2107 74.5391 12.5858 74.9142C12.9609 75.2893 13.4696 75.5 14 75.5H66C66.5304 75.5 67.0391 75.2893 67.4142 74.9142C67.7893 74.5391 68 74.0304 68 73.5V7.5C68 6.96957 67.7893 6.46086 67.4142 6.08579C67.0391 5.71071 66.5304 5.5 66 5.5H14C13.4696 5.5 12.9609 5.71071 12.5858 6.08579C12.2107 6.46086 12 6.96957 12 7.5ZM16 9.5H64V71.5H16V9.5Z" fill="white"/>
<path d="M32.769 31.5002C34.938 31.5002 37.024 30.5552 38.493 28.9072C38.6747 28.7123 38.8156 28.4831 38.9075 28.233C38.9994 27.9828 39.0403 27.7169 39.028 27.4507C39.0156 27.1846 38.9502 26.9235 38.8356 26.683C38.721 26.4425 38.5594 26.2273 38.3605 26.05C38.1615 25.8728 37.9291 25.7371 37.677 25.6509C37.4249 25.5647 37.1581 25.5298 36.8922 25.5482C36.6264 25.5665 36.3669 25.6378 36.1291 25.7579C35.8912 25.8779 35.6797 26.0443 35.507 26.2472C34.787 27.0552 33.814 27.5002 32.769 27.5002C30.691 27.5002 29 25.7062 29 23.5002C29 21.2942 30.69 19.5002 32.769 19.5002C33.814 19.5002 34.786 19.9452 35.507 20.7542C35.862 21.142 36.3555 21.3744 36.8806 21.4011C37.4057 21.4278 37.9202 21.2466 38.3128 20.8968C38.7053 20.547 38.9443 20.0567 38.978 19.532C39.0118 19.0073 38.8375 18.4904 38.493 18.0932C37.024 16.4452 34.938 15.5002 32.77 15.5002C28.485 15.5002 25 19.0892 25 23.5002C25 27.9112 28.485 31.5002 32.769 31.5002ZM46.154 30.2692C46.3059 30.6336 46.5623 30.9449 46.8908 31.1638C47.2193 31.3828 47.6052 31.4996 48 31.4996C48.3948 31.4996 48.7807 31.3828 49.1092 31.1638C49.4377 30.9449 49.6941 30.6336 49.846 30.2692L54.846 18.2692C54.9517 18.026 55.0079 17.7642 55.0115 17.499C55.0151 17.2338 54.9658 16.9706 54.8667 16.7246C54.7676 16.4786 54.6205 16.2548 54.4341 16.0662C54.2477 15.8776 54.0256 15.7279 53.7808 15.626C53.536 15.524 53.2733 15.4717 53.0081 15.4722C52.7429 15.4726 52.4805 15.5259 52.236 15.6287C51.9916 15.7316 51.77 15.882 51.5843 16.0713C51.3985 16.2606 51.2523 16.4849 51.154 16.7312L48 24.3002L44.846 16.7312C44.7477 16.4849 44.6015 16.2606 44.4157 16.0713C44.23 15.882 44.0084 15.7316 43.764 15.6287C43.5195 15.5259 43.2571 15.4726 42.9919 15.4722C42.7267 15.4717 42.464 15.524 42.2192 15.626C41.9744 15.7279 41.7523 15.8776 41.5659 16.0662C41.3795 16.2548 41.2324 16.4786 41.1333 16.7246C41.0342 16.9706 40.9849 17.2338 40.9885 17.499C40.9921 17.7642 41.0483 18.026 41.154 18.2692L46.154 30.2692ZM59 39.5002H21C20.4696 39.5002 19.9609 39.7109 19.5858 40.086C19.2107 40.4611 19 40.9698 19 41.5002C19 42.0306 19.2107 42.5394 19.5858 42.9144C19.9609 43.2895 20.4696 43.5002 21 43.5002H59C59.5304 43.5002 60.0391 43.2895 60.4142 42.9144C60.7893 42.5394 61 42.0306 61 41.5002C61 40.9698 60.7893 40.4611 60.4142 40.086C60.0391 39.7109 59.5304 39.5002 59 39.5002ZM59 50.5002H21C20.4696 50.5002 19.9609 50.7109 19.5858 51.086C19.2107 51.4611 19 51.9698 19 52.5002C19 53.0306 19.2107 53.5394 19.5858 53.9144C19.9609 54.2895 20.4696 54.5002 21 54.5002H59C59.5304 54.5002 60.0391 54.2895 60.4142 53.9144C60.7893 53.5394 61 53.0306 61 52.5002C61 51.9698 60.7893 51.4611 60.4142 51.086C60.0391 50.7109 59.5304 50.5002 59 50.5002ZM59 61.5002H21C20.4696 61.5002 19.9609 61.7109 19.5858 62.086C19.2107 62.4611 19 62.9698 19 63.5002C19 64.0306 19.2107 64.5394 19.5858 64.9144C19.9609 65.2895 20.4696 65.5002 21 65.5002H59C59.5304 65.5002 60.0391 65.2895 60.4142 64.9144C60.7893 64.5394 61 64.0306 61 63.5002C61 62.9698 60.7893 62.4611 60.4142 62.086C60.0391 61.7109 59.5304 61.5002 59 61.5002Z" fill="white"/>
</svg>
