<svg width="550" height="500" viewBox="0 0 550 500" fill="none" xmlns="http://www.w3.org/2000/svg">
<path d="M137 233.378C137 201.393 137 185.4 143.128 173.183C148.518 162.437 157.119 153.7 167.698 148.225C179.724 142 195.468 142 226.956 142H300.044C331.532 142 347.276 142 359.302 148.225C369.881 153.7 378.482 162.437 383.872 173.183C390 185.4 390 201.393 390 233.378V307.622C390 339.607 390 355.6 383.872 367.817C378.482 378.563 369.881 387.3 359.302 392.775C347.276 399 331.532 399 300.044 399H226.956C195.468 399 179.724 399 167.698 392.775C157.119 387.3 148.518 378.563 143.128 367.817C137 355.6 137 339.607 137 307.622V233.378Z" fill="white"/>
<path d="M274.95 161.072L188.427 8.37896C191.3 5.45421 194.605 3.53572 197.91 2.24622C172.397 10.6435 160.69 39.295 160.69 39.295L2.62602 318.167C0.402023 326.912 -0.215727 334.805 0.0622726 341.757H172.582L274.95 161.072Z" fill="#34A853"/>
<path d="M274.952 161.072L377.32 341.757H549.84C550.117 334.805 549.5 326.912 547.275 318.167L389.212 39.295C389.212 39.295 377.475 10.6435 351.99 2.24622C355.265 3.53572 358.6 5.45421 361.472 8.37896L274.952 161.072Z" fill="#FBBC05"/>
<path d="M274.95 161.09L361.472 8.3975C358.6 5.4725 355.262 3.554 351.99 2.2645C348.22 1.038 344.175 0.22025 339.787 0H335.215H214.685H210.112C205.757 0.18875 201.68 1.0065 197.91 2.2645C194.637 3.554 191.3 5.4725 188.427 8.3975L274.95 161.09Z" fill="#188038"/>
<path d="M172.607 341.76L87.074 492.725C87.074 492.725 84.2323 491.34 80.371 488.477C92.5108 497.82 104.311 499.8 104.311 499.8H440.237C458.77 499.8 462.632 492.725 462.632 492.725C462.692 492.692 462.725 492.66 462.785 492.63L377.315 341.76H172.607Z" fill="#4285F4"/>
<path d="M172.617 341.76H0.0975342C0.962534 362.267 9.85878 374.25 9.85878 374.25L16.3455 385.507C16.809 386.17 17.087 386.547 17.087 386.547L31.2035 411.33L62.8963 466.495C63.823 468.727 64.9043 470.77 66.0473 472.72C66.4795 473.382 66.881 474.105 67.3445 474.735C67.468 474.922 67.5915 475.112 67.7153 475.3C71.6383 480.835 76.0245 485.112 80.4108 488.477C84.272 491.372 87.114 492.725 87.114 492.725L172.617 341.76Z" fill="#1967D2"/>
<path d="M377.32 341.76H549.837C548.972 362.267 540.077 374.25 540.077 374.25L533.59 385.507C533.127 386.17 532.85 386.547 532.85 386.547L518.732 411.33L487.04 466.495C486.112 468.727 485.032 470.77 483.89 472.72C483.457 473.382 483.055 474.105 482.592 474.735C482.467 474.922 482.345 475.112 482.22 475.3C478.297 480.835 473.912 485.112 469.525 488.477C465.665 491.372 462.822 492.725 462.822 492.725L377.32 341.76Z" fill="#EA4335"/>
</svg>
