<svg width="60" height="61" viewBox="0 0 60 61" fill="none" xmlns="http://www.w3.org/2000/svg">
<path d="M14 14.5C10.693 14.5 8 17.193 8 20.5V40.5C8 43.807 10.693 46.5 14 46.5H46C49.307 46.5 52 43.807 52 40.5V20.5C52 17.193 49.307 14.5 46 14.5H14ZM14 16.5H46C48.233 16.5 50 18.267 50 20.5V40.5C50 42.733 48.233 44.5 46 44.5H14C13.4736 44.504 12.9517 44.4033 12.4646 44.2037C11.9774 44.004 11.5349 43.7096 11.1627 43.3373C10.7904 42.9651 10.496 42.5226 10.2963 42.0354C10.0967 41.5483 9.99601 41.0264 10 40.5V20.5C10 18.267 11.767 16.5 14 16.5Z" fill="white"/>
<path d="M15.029 20.4999C14.8929 20.496 14.7573 20.52 14.6308 20.5704C14.5042 20.6208 14.3893 20.6965 14.293 20.7929C14.1056 20.9804 14.0002 21.2348 14.0002 21.4999C14.0002 21.7651 14.1056 22.0194 14.293 22.2069L26.293 34.2069C28.332 36.2469 31.668 36.2469 33.707 34.2069L45.707 22.2069C45.8945 22.0194 45.9998 21.7651 45.9998 21.4999C45.9998 21.2348 45.8945 20.9804 45.707 20.7929C45.5195 20.6054 45.2652 20.5001 45 20.5001C44.7349 20.5001 44.4806 20.6054 44.293 20.7929L32.293 32.7929C31.9929 33.0958 31.6357 33.3362 31.2422 33.5003C30.8486 33.6644 30.4264 33.7489 30 33.7489C29.5736 33.7489 29.1515 33.6644 28.7579 33.5003C28.3643 33.3362 28.0072 33.0958 27.707 32.7929L15.707 20.7929C15.5267 20.6123 15.2841 20.5075 15.029 20.4999Z" fill="white"/>
</svg>
