<svg width="32" height="33" viewBox="0 0 32 33" fill="none" xmlns="http://www.w3.org/2000/svg">
<path d="M27.308 21.1488L25.108 18.9488C24.4522 18.2982 23.567 17.9315 22.6433 17.9275C21.7196 17.9236 20.8313 18.2828 20.17 18.9278C19.8172 19.2826 19.3516 19.5035 18.8536 19.5522C18.3555 19.6009 17.856 19.4745 17.441 19.1948C15.8032 18.1017 14.3962 16.6974 13.3 15.0618C13.0252 14.6422 12.9034 14.1407 12.9551 13.6418C13.0068 13.1429 13.2289 12.677 13.584 12.3228C14.2231 11.6608 14.5777 10.775 14.5719 9.85495C14.5661 8.93486 14.2004 8.05359 13.553 7.39977L11.353 5.19977C10.6944 4.54337 9.8024 4.1748 8.87253 4.1748C7.94265 4.1748 7.05068 4.54337 6.39202 5.19977L5.75902 5.83377C2.45902 9.13377 2.70602 16.0718 9.57202 22.9338C13.712 27.0748 17.879 28.8088 21.258 28.8088C22.2527 28.8419 23.244 28.6767 24.1742 28.3229C25.1044 27.969 25.9548 27.4336 26.676 26.7478L27.31 26.1138C27.9676 25.4548 28.3368 24.5618 28.3364 23.6309C28.336 22.6999 27.9661 21.8072 27.308 21.1488ZM25.894 24.6998L25.26 25.3338C22.66 27.9338 16.921 27.4588 10.984 21.5208C5.04703 15.5828 4.57102 9.83977 7.17102 7.23977L7.80002 6.60677C8.08323 6.32458 8.46673 6.16614 8.86652 6.16614C9.26632 6.16614 9.64982 6.32458 9.93302 6.60677L12.133 8.80677C12.4111 9.08622 12.5689 9.46329 12.5728 9.85749C12.5768 10.2517 12.4265 10.6318 12.154 10.9168C11.4783 11.5968 11.0568 12.4884 10.9601 13.4422C10.8635 14.3959 11.0975 15.354 11.623 16.1558C12.8686 18.0197 14.4703 19.619 16.336 20.8618C17.1354 21.3874 18.0909 21.6228 19.043 21.5287C19.9951 21.4346 20.886 21.0167 21.567 20.3448C21.8514 20.0691 22.2326 19.916 22.6287 19.9184C23.0247 19.9209 23.404 20.0786 23.685 20.3578L25.885 22.5578C26.0268 22.6975 26.1396 22.8639 26.2168 23.0474C26.294 23.2309 26.3342 23.4278 26.3351 23.6269C26.3359 23.826 26.2974 24.0232 26.2217 24.2074C26.146 24.3915 26.0346 24.5588 25.894 24.6998Z" fill="white"/>
</svg>
