<svg width="512" height="513" viewBox="0 0 512 513" fill="none" xmlns="http://www.w3.org/2000/svg">
<path fill-rule="evenodd" clip-rule="evenodd" d="M209.877 154.614C205.619 143.291 200.701 144.099 197.427 143.975C194.15 143.854 191.281 143.914 186.854 143.986C183.108 144.047 176.972 145.012 171.622 150.399C166.265 155.777 151.256 168.711 150.218 196.124C149.187 223.532 168.298 250.767 170.967 254.579C173.634 258.405 207.461 317.815 263.686 342.249C319.917 366.676 320.211 359.23 330.526 358.684C340.851 358.144 364.252 346.438 369.425 333.611C374.597 320.784 375.013 309.632 373.696 307.253C372.38 304.882 368.696 303.342 363.186 300.353C357.67 297.358 330.591 282.855 325.513 280.803C320.432 278.759 316.726 277.695 312.771 283.132C308.814 288.554 297.58 300.701 294.175 304.3C290.755 307.9 287.464 308.234 281.949 305.23C276.449 302.242 258.576 295.682 237.851 275.913C221.725 260.533 211.14 241.87 208.072 236.177C205.003 230.48 208.052 227.573 210.972 224.908C213.59 222.501 216.829 218.607 219.764 215.459C222.683 212.311 223.713 210.029 225.725 206.376C227.732 202.731 226.925 199.444 225.623 196.605C224.32 193.767 214.133 165.937 209.877 154.614Z" fill="white"/>
<path d="M260.062 64.5C310.311 64.5 357.54 83.902 393.044 119.132C428.482 154.296 448 201.033 448 250.732C448 300.426 428.482 347.162 393.044 382.328C357.537 417.56 310.309 436.965 260.062 436.965C228.256 436.965 196.822 428.942 169.156 413.764L157.139 407.171L144.076 411.32L82.624 430.842L101.999 373.693L106.797 359.542L99.026 346.779C81.433 317.881 72.134 284.668 72.134 250.732C72.134 201.033 91.652 154.296 127.091 119.131C162.596 83.902 209.819 64.5 260.062 64.5ZM260.062 32.5C138.605 32.5 40.134 130.201 40.134 250.732C40.134 291.961 51.666 330.523 71.693 363.419L32 480.5L153.764 441.818C185.272 459.103 221.509 468.964 260.062 468.964C381.535 468.964 480 371.249 480 250.732C480 130.201 381.535 32.5 260.062 32.5Z" fill="white"/>
</svg>
