<svg width="800" height="568" viewBox="0 0 800 568" fill="none" xmlns="http://www.w3.org/2000/svg">
<path d="M166 216.445C166 172.885 166 151.105 177.36 134.467C187.352 119.833 203.296 107.934 222.906 100.477C245.201 92 274.386 92 332.756 92H468.244C526.614 92 555.799 92 578.094 100.477C597.704 107.934 613.649 119.833 623.64 134.467C635 151.105 635 172.885 635 216.445V317.555C635 361.115 635 382.895 623.64 399.533C613.649 414.168 597.704 426.066 578.094 433.522C555.799 442 526.614 442 468.244 442H332.756C274.386 442 245.201 442 222.906 433.522C203.296 426.066 187.352 414.168 177.36 399.533C166 382.895 166 361.115 166 317.555V216.445Z" fill="white"/>
<path d="M633.85 0.950684H166.15C74.3877 0.950684 0 75.3384 0 167.1V400.901C0 492.663 74.3877 567.051 166.15 567.051H633.85C725.612 567.051 800 492.663 800 400.901V167.1C800 75.3384 725.612 0.950684 633.85 0.950684ZM521.484 295.376L302.726 399.711C296.897 402.491 290.163 398.241 290.163 391.784V176.593C290.163 170.044 297.074 165.799 302.915 168.759L521.673 279.616C528.178 282.911 528.065 292.239 521.484 295.376Z" fill="#F61C0D"/>
</svg>
